<?xml version="1.0" encoding="utf-8"?>
<!-- Generator: Adobe Illustrator 21.0.0, SVG Export Plug-In . SVG Version: 6.00 Build 0)  -->
<svg version="1.1" xmlns="http://www.w3.org/2000/svg" xmlns:xlink="http://www.w3.org/1999/xlink" x="0px" y="0px"
	 viewBox="0 0 730 320" style="enable-background:new 0 0 730 320;" xml:space="preserve">
<style type="text/css">
	.st0{fill:none;stroke:#CCCCCC;}
	.st1{fill:#999999;}
	.st2{fill:none;stroke:#ED454A;stroke-width:2;}
	.st3{fill:none;stroke:#39B54A;stroke-width:2;}
</style>
<g id="Layer_2">
	<polyline class="st0" points="42.5,22 42.5,288.5 713.5,288.5 	"/>
	<line class="st0" x1="43" y1="22" x2="36.5" y2="22"/>
	<line class="st0" x1="42.5" y1="51.3" x2="36.5" y2="51.3"/>
	<line class="st0" x1="42.5" y1="80.5" x2="36.5" y2="80.5"/>
	<line class="st0" x1="42.5" y1="109.8" x2="36.5" y2="109.8"/>
	<line class="st0" x1="42.5" y1="139" x2="36.5" y2="139"/>
	<line class="st0" x1="42.5" y1="168" x2="36.5" y2="168"/>
	<line class="st0" x1="42.5" y1="197.3" x2="36.5" y2="197.3"/>
	<line class="st0" x1="42.5" y1="226.2" x2="36.5" y2="226.2"/>
	<line class="st0" x1="42.5" y1="255.7" x2="36.5" y2="255.7"/>
	<line class="st0" x1="88.5" y1="294.5" x2="88.5" y2="288.5"/>
	<line class="st0" x1="448.5" y1="294.5" x2="448.5" y2="288.5"/>
	<line class="st0" x1="42.5" y1="288.5" x2="36.5" y2="288.5"/>
	<g>
		<path class="st1" d="M22.1,288h0.8v-3.5h2c0.4,0,0.7,0,1,0.1c0.3,0.1,0.6,0.2,0.8,0.4c0.2,0.2,0.4,0.4,0.5,0.7
			c0.1,0.3,0.2,0.6,0.2,0.9c0,0.4-0.1,0.7-0.2,1s-0.3,0.5-0.5,0.7s-0.5,0.3-0.8,0.4c-0.3,0.1-0.6,0.1-1,0.1h-1.1v1.1h1.8v0.7h-1.8
			v1.6h-0.9v-1.6h-0.8v-0.7h0.8v-1.1h-0.8V288z M24.9,288c0.5,0,0.9-0.1,1.2-0.3c0.3-0.2,0.4-0.6,0.4-1c0-0.5-0.1-0.8-0.4-1
			c-0.3-0.2-0.7-0.3-1.2-0.3h-1.1v2.7H24.9z"/>
		<path class="st1" d="M28.5,287.4c0-0.3,0.1-0.6,0.1-0.9c0.1-0.3,0.1-0.6,0.3-0.8c0.1-0.3,0.3-0.5,0.5-0.7c0.2-0.2,0.4-0.4,0.7-0.5
			c0.3-0.1,0.6-0.2,1-0.2s0.7,0.1,1,0.2c0.3,0.1,0.5,0.3,0.7,0.5c0.2,0.2,0.3,0.4,0.5,0.7s0.2,0.5,0.3,0.8c0.1,0.3,0.1,0.6,0.1,0.9
			c0,0.3,0,0.6,0,0.9s0,0.6,0,0.9c0,0.3-0.1,0.6-0.1,0.9c-0.1,0.3-0.1,0.6-0.3,0.8c-0.1,0.3-0.3,0.5-0.5,0.7
			c-0.2,0.2-0.4,0.4-0.7,0.5c-0.3,0.1-0.6,0.2-1,0.2c-0.4,0-0.8-0.1-1-0.2c-0.3-0.1-0.5-0.3-0.7-0.5c-0.2-0.2-0.3-0.4-0.5-0.7
			c-0.1-0.3-0.2-0.5-0.3-0.8c-0.1-0.3-0.1-0.6-0.1-0.9c0-0.3,0-0.6,0-0.9S28.5,287.8,28.5,287.4z M29.5,289.3c0,0.4,0.1,0.7,0.2,1
			c0.1,0.3,0.3,0.6,0.5,0.8c0.2,0.2,0.5,0.3,0.9,0.3s0.7-0.1,0.9-0.3c0.2-0.2,0.4-0.5,0.5-0.8c0.1-0.3,0.2-0.7,0.2-1
			c0-0.4,0-0.7,0-1c0-0.2,0-0.4,0-0.6c0-0.2,0-0.5-0.1-0.7c0-0.2-0.1-0.5-0.1-0.7s-0.2-0.4-0.3-0.6s-0.3-0.3-0.5-0.4
			c-0.2-0.1-0.4-0.2-0.7-0.2c-0.3,0-0.5,0.1-0.7,0.2c-0.2,0.1-0.3,0.2-0.5,0.4c-0.1,0.2-0.2,0.4-0.3,0.6c-0.1,0.2-0.1,0.4-0.1,0.7
			c0,0.2-0.1,0.5-0.1,0.7c0,0.2,0,0.4,0,0.6C29.5,288.6,29.5,288.9,29.5,289.3z"/>
	</g>
	<g>
		<path class="st1" d="M74.6,299.6h1.1v6.4h0l4-6.4H81v7.9h-1.1v-6.4h0l-4,6.4h-1.2V299.6z"/>
		<path class="st1" d="M82.8,301.7h1v2.4h1.1c0-0.4,0.1-0.8,0.3-1.1s0.3-0.6,0.6-0.8s0.5-0.4,0.8-0.5s0.7-0.2,1-0.2
			c0.4,0,0.8,0.1,1.1,0.2s0.6,0.3,0.8,0.6c0.2,0.3,0.4,0.6,0.5,1s0.2,0.8,0.2,1.3c0,0.5-0.1,0.9-0.2,1.3s-0.3,0.7-0.5,1
			c-0.2,0.3-0.5,0.5-0.8,0.6s-0.7,0.2-1.1,0.2c-0.4,0-0.7-0.1-1.1-0.2c-0.3-0.1-0.6-0.3-0.8-0.5s-0.4-0.5-0.5-0.9s-0.2-0.7-0.2-1.1
			h-1.1v2.5h-1V301.7z M89.2,304.6c0-0.3,0-0.6-0.1-0.9s-0.2-0.5-0.3-0.7c-0.1-0.2-0.3-0.3-0.5-0.5c-0.2-0.1-0.5-0.2-0.7-0.2
			s-0.5,0.1-0.7,0.2c-0.2,0.1-0.4,0.3-0.5,0.5c-0.1,0.2-0.2,0.4-0.3,0.7s-0.1,0.6-0.1,0.9c0,0.3,0,0.6,0.1,0.9s0.2,0.5,0.3,0.7
			c0.1,0.2,0.3,0.3,0.5,0.5c0.2,0.1,0.5,0.2,0.7,0.2s0.5-0.1,0.7-0.2c0.2-0.1,0.4-0.3,0.5-0.5c0.1-0.2,0.2-0.4,0.3-0.7
			S89.2,304.9,89.2,304.6z"/>
		<path class="st1" d="M91.6,301.7h1v2.3h2.7v-2.3h1v5.8h-1v-2.6h-2.7v2.6h-1V301.7z"/>
		<path class="st1" d="M98,301.7h1v2.2h1.6c0.3,0,0.6,0,0.8,0.1s0.5,0.2,0.6,0.4c0.2,0.2,0.3,0.3,0.4,0.6c0.1,0.2,0.1,0.5,0.1,0.7
			c0,0.3,0,0.5-0.1,0.7c-0.1,0.2-0.2,0.4-0.4,0.6c-0.2,0.2-0.4,0.3-0.6,0.4c-0.2,0.1-0.5,0.1-0.8,0.1H98V301.7z M99,306.7h1.4
			c0.2,0,0.3,0,0.5-0.1c0.1,0,0.3-0.1,0.4-0.2c0.1-0.1,0.2-0.2,0.3-0.3s0.1-0.3,0.1-0.5c0-0.2,0-0.3-0.1-0.5
			c-0.1-0.1-0.2-0.2-0.3-0.3c-0.1-0.1-0.2-0.1-0.4-0.2c-0.2,0-0.3-0.1-0.5-0.1H99V306.7z"/>
	</g>
	<g>
		<path class="st1" d="M434.3,299.6h1.1v6.4h0l4-6.4h1.2v7.9h-1.1v-6.4h0l-4,6.4h-1.2V299.6z"/>
		<path class="st1" d="M442.4,301.7h1v2.4h1.1c0-0.4,0.1-0.8,0.3-1.1s0.3-0.6,0.6-0.8c0.2-0.2,0.5-0.4,0.8-0.5s0.7-0.2,1-0.2
			c0.4,0,0.8,0.1,1.1,0.2c0.3,0.1,0.6,0.3,0.8,0.6c0.2,0.3,0.4,0.6,0.5,1c0.1,0.4,0.2,0.8,0.2,1.3c0,0.5-0.1,0.9-0.2,1.3
			c-0.1,0.4-0.3,0.7-0.5,1c-0.2,0.3-0.5,0.5-0.8,0.6c-0.3,0.1-0.7,0.2-1.1,0.2c-0.4,0-0.7-0.1-1.1-0.2c-0.3-0.1-0.6-0.3-0.8-0.5
			c-0.2-0.2-0.4-0.5-0.5-0.9c-0.1-0.3-0.2-0.7-0.2-1.1h-1.1v2.5h-1V301.7z M448.9,304.6c0-0.3,0-0.6-0.1-0.9
			c-0.1-0.3-0.2-0.5-0.3-0.7c-0.1-0.2-0.3-0.3-0.5-0.5c-0.2-0.1-0.5-0.2-0.7-0.2c-0.3,0-0.5,0.1-0.7,0.2c-0.2,0.1-0.4,0.3-0.5,0.5
			s-0.2,0.4-0.3,0.7c-0.1,0.3-0.1,0.6-0.1,0.9c0,0.3,0,0.6,0.1,0.9c0.1,0.3,0.2,0.5,0.3,0.7s0.3,0.3,0.5,0.5
			c0.2,0.1,0.5,0.2,0.7,0.2c0.3,0,0.5-0.1,0.7-0.2c0.2-0.1,0.4-0.3,0.5-0.5c0.1-0.2,0.2-0.4,0.3-0.7
			C448.9,305.2,448.9,304.9,448.9,304.6z"/>
		<path class="st1" d="M455.1,302.6h-2.2l0,1.4c0,0.7-0.1,1.3-0.2,1.7c-0.1,0.5-0.2,0.8-0.4,1.1c-0.1,0.3-0.3,0.5-0.5,0.6
			c-0.2,0.1-0.5,0.2-0.7,0.2c-0.1,0-0.2,0-0.3,0s-0.1-0.1-0.2-0.1v-0.9c0.1,0.1,0.3,0.1,0.4,0.1c0.1,0,0.1,0,0.2,0
			c0.1,0,0.1-0.1,0.2-0.1c0.1-0.1,0.1-0.2,0.2-0.3s0.1-0.3,0.1-0.5c0-0.2,0.1-0.5,0.1-0.8c0-0.3,0-0.7,0.1-1.1l0-2.1h4.1v5.8h-1
			V302.6z"/>
		<path class="st1" d="M457.9,301.7h1v2.2h1.6c0.3,0,0.6,0,0.8,0.1s0.5,0.2,0.6,0.4c0.2,0.2,0.3,0.3,0.4,0.6
			c0.1,0.2,0.1,0.5,0.1,0.7c0,0.3,0,0.5-0.1,0.7c-0.1,0.2-0.2,0.4-0.4,0.6c-0.2,0.2-0.4,0.3-0.6,0.4c-0.2,0.1-0.5,0.1-0.8,0.1h-2.6
			V301.7z M458.9,306.7h1.4c0.2,0,0.3,0,0.5-0.1c0.1,0,0.3-0.1,0.4-0.2c0.1-0.1,0.2-0.2,0.3-0.3c0.1-0.1,0.1-0.3,0.1-0.5
			c0-0.2,0-0.3-0.1-0.5c-0.1-0.1-0.2-0.2-0.3-0.3c-0.1-0.1-0.2-0.1-0.4-0.2c-0.2,0-0.3-0.1-0.5-0.1h-1.3V306.7z"/>
	</g>
	<g>
		<path class="st1" d="M15.7,255.2h0.8v-3.5h2c0.4,0,0.7,0,1,0.1c0.3,0.1,0.6,0.2,0.8,0.4c0.2,0.2,0.4,0.4,0.5,0.7
			c0.1,0.3,0.2,0.6,0.2,0.9c0,0.4-0.1,0.7-0.2,1s-0.3,0.5-0.5,0.7s-0.5,0.3-0.8,0.4c-0.3,0.1-0.6,0.1-1,0.1h-1.1v1.1h1.8v0.7h-1.8
			v1.6h-0.9v-1.6h-0.8V257h0.8v-1.1h-0.8V255.2z M18.5,255.2c0.5,0,0.9-0.1,1.2-0.3c0.3-0.2,0.4-0.6,0.4-1c0-0.5-0.1-0.8-0.4-1
			c-0.3-0.2-0.7-0.3-1.2-0.3h-1.1v2.7H18.5z"/>
		<path class="st1" d="M24.6,259.3v-5.6h-2V253c0.3,0,0.5,0,0.8-0.1c0.2,0,0.5-0.1,0.7-0.2s0.4-0.3,0.5-0.5c0.1-0.2,0.2-0.4,0.3-0.7
			h0.7v7.8H24.6z"/>
		<path class="st1" d="M28.5,254.6c0-0.3,0.1-0.6,0.1-0.9c0.1-0.3,0.1-0.6,0.3-0.8c0.1-0.3,0.3-0.5,0.5-0.7c0.2-0.2,0.4-0.4,0.7-0.5
			c0.3-0.1,0.6-0.2,1-0.2s0.7,0.1,1,0.2c0.3,0.1,0.5,0.3,0.7,0.5c0.2,0.2,0.3,0.4,0.5,0.7s0.2,0.5,0.3,0.8c0.1,0.3,0.1,0.6,0.1,0.9
			c0,0.3,0,0.6,0,0.9s0,0.6,0,0.9c0,0.3-0.1,0.6-0.1,0.9c-0.1,0.3-0.1,0.6-0.3,0.8c-0.1,0.3-0.3,0.5-0.5,0.7
			c-0.2,0.2-0.4,0.4-0.7,0.5c-0.3,0.1-0.6,0.2-1,0.2c-0.4,0-0.8-0.1-1-0.2c-0.3-0.1-0.5-0.3-0.7-0.5c-0.2-0.2-0.3-0.4-0.5-0.7
			c-0.1-0.3-0.2-0.5-0.3-0.8c-0.1-0.3-0.1-0.6-0.1-0.9c0-0.3,0-0.6,0-0.9S28.5,254.9,28.5,254.6z M29.5,256.5c0,0.4,0.1,0.7,0.2,1
			c0.1,0.3,0.3,0.6,0.5,0.8c0.2,0.2,0.5,0.3,0.9,0.3s0.7-0.1,0.9-0.3c0.2-0.2,0.4-0.5,0.5-0.8c0.1-0.3,0.2-0.7,0.2-1
			c0-0.4,0-0.7,0-1c0-0.2,0-0.4,0-0.6c0-0.2,0-0.5-0.1-0.7c0-0.2-0.1-0.5-0.1-0.7s-0.2-0.4-0.3-0.6s-0.3-0.3-0.5-0.4
			c-0.2-0.1-0.4-0.2-0.7-0.2c-0.3,0-0.5,0.1-0.7,0.2c-0.2,0.1-0.3,0.2-0.5,0.4c-0.1,0.2-0.2,0.4-0.3,0.6c-0.1,0.2-0.1,0.4-0.1,0.7
			c0,0.2-0.1,0.5-0.1,0.7c0,0.2,0,0.4,0,0.6C29.5,255.8,29.5,256.1,29.5,256.5z"/>
	</g>
	<g>
		<path class="st1" d="M15.7,226h0.8v-3.5h2c0.4,0,0.7,0,1,0.1c0.3,0.1,0.6,0.2,0.8,0.4c0.2,0.2,0.4,0.4,0.5,0.7
			c0.1,0.3,0.2,0.6,0.2,0.9c0,0.4-0.1,0.7-0.2,1s-0.3,0.5-0.5,0.7s-0.5,0.3-0.8,0.4c-0.3,0.1-0.6,0.1-1,0.1h-1.1v1.1h1.8v0.7h-1.8
			v1.6h-0.9v-1.6h-0.8v-0.7h0.8v-1.1h-0.8V226z M18.5,226c0.5,0,0.9-0.1,1.2-0.3c0.3-0.2,0.4-0.6,0.4-1c0-0.5-0.1-0.8-0.4-1
			c-0.3-0.2-0.7-0.3-1.2-0.3h-1.1v2.7H18.5z"/>
		<path class="st1" d="M22.3,224c0.1-0.3,0.3-0.6,0.5-0.9c0.2-0.2,0.5-0.4,0.8-0.6s0.7-0.2,1.1-0.2c0.3,0,0.7,0,1,0.1
			c0.3,0.1,0.6,0.2,0.8,0.4c0.2,0.2,0.4,0.4,0.5,0.7c0.1,0.3,0.2,0.6,0.2,1c0,0.3-0.1,0.6-0.2,0.9c-0.1,0.3-0.2,0.5-0.4,0.7
			c-0.2,0.2-0.4,0.4-0.6,0.6c-0.2,0.2-0.5,0.3-0.7,0.5c-0.2,0.1-0.5,0.3-0.7,0.4c-0.2,0.1-0.5,0.3-0.7,0.5s-0.4,0.3-0.5,0.5
			c-0.1,0.2-0.2,0.4-0.3,0.6h4v0.8h-5.1c0-0.5,0.1-0.9,0.2-1.2c0.1-0.3,0.3-0.6,0.5-0.9c0.2-0.2,0.4-0.5,0.7-0.6
			c0.2-0.2,0.5-0.4,0.8-0.5c0.3-0.2,0.6-0.4,0.9-0.6c0.2-0.2,0.5-0.3,0.6-0.5c0.2-0.2,0.3-0.4,0.4-0.6c0.1-0.2,0.1-0.4,0.1-0.7
			c0-0.2,0-0.4-0.1-0.6c-0.1-0.2-0.2-0.3-0.3-0.4s-0.3-0.2-0.5-0.3c-0.2-0.1-0.4-0.1-0.6-0.1c-0.3,0-0.5,0.1-0.7,0.2
			c-0.2,0.1-0.4,0.3-0.5,0.4c-0.1,0.2-0.2,0.4-0.3,0.6c-0.1,0.2-0.1,0.5-0.1,0.7h-0.9C22.1,224.7,22.2,224.3,22.3,224z"/>
		<path class="st1" d="M28.5,225.4c0-0.3,0.1-0.6,0.1-0.9c0.1-0.3,0.1-0.6,0.3-0.8c0.1-0.3,0.3-0.5,0.5-0.7c0.2-0.2,0.4-0.4,0.7-0.5
			c0.3-0.1,0.6-0.2,1-0.2s0.7,0.1,1,0.2c0.3,0.1,0.5,0.3,0.7,0.5c0.2,0.2,0.3,0.4,0.5,0.7s0.2,0.5,0.3,0.8c0.1,0.3,0.1,0.6,0.1,0.9
			c0,0.3,0,0.6,0,0.9s0,0.6,0,0.9c0,0.3-0.1,0.6-0.1,0.9c-0.1,0.3-0.1,0.6-0.3,0.8c-0.1,0.3-0.3,0.5-0.5,0.7
			c-0.2,0.2-0.4,0.4-0.7,0.5c-0.3,0.1-0.6,0.2-1,0.2c-0.4,0-0.8-0.1-1-0.2c-0.3-0.1-0.5-0.3-0.7-0.5c-0.2-0.2-0.3-0.4-0.5-0.7
			c-0.1-0.3-0.2-0.5-0.3-0.8c-0.1-0.3-0.1-0.6-0.1-0.9c0-0.3,0-0.6,0-0.9S28.5,225.7,28.5,225.4z M29.5,227.3c0,0.4,0.1,0.7,0.2,1
			c0.1,0.3,0.3,0.6,0.5,0.8c0.2,0.2,0.5,0.3,0.9,0.3s0.7-0.1,0.9-0.3c0.2-0.2,0.4-0.5,0.5-0.8c0.1-0.3,0.2-0.7,0.2-1
			c0-0.4,0-0.7,0-1c0-0.2,0-0.4,0-0.6c0-0.2,0-0.5-0.1-0.7c0-0.2-0.1-0.5-0.1-0.7s-0.2-0.4-0.3-0.6s-0.3-0.3-0.5-0.4
			c-0.2-0.1-0.4-0.2-0.7-0.2c-0.3,0-0.5,0.1-0.7,0.2c-0.2,0.1-0.3,0.2-0.5,0.4c-0.1,0.2-0.2,0.4-0.3,0.6c-0.1,0.2-0.1,0.4-0.1,0.7
			c0,0.2-0.1,0.5-0.1,0.7c0,0.2,0,0.4,0,0.6C29.5,226.6,29.5,226.9,29.5,227.3z"/>
	</g>
	<g>
		<path class="st1" d="M15.7,196.8h0.8v-3.5h2c0.4,0,0.7,0,1,0.1c0.3,0.1,0.6,0.2,0.8,0.4c0.2,0.2,0.4,0.4,0.5,0.7
			c0.1,0.3,0.2,0.6,0.2,0.9c0,0.4-0.1,0.7-0.2,1s-0.3,0.5-0.5,0.7s-0.5,0.3-0.8,0.4c-0.3,0.1-0.6,0.1-1,0.1h-1.1v1.1h1.8v0.7h-1.8
			v1.6h-0.9v-1.6h-0.8v-0.7h0.8v-1.1h-0.8V196.8z M18.5,196.8c0.5,0,0.9-0.1,1.2-0.3c0.3-0.2,0.4-0.6,0.4-1c0-0.5-0.1-0.8-0.4-1
			c-0.3-0.2-0.7-0.3-1.2-0.3h-1.1v2.7H18.5z"/>
		<path class="st1" d="M24.2,196.5c0,0,0.1,0,0.1,0h0.2c0.2,0,0.4,0,0.6-0.1s0.3-0.1,0.5-0.2c0.1-0.1,0.2-0.2,0.3-0.4
			s0.1-0.3,0.1-0.5c0-0.4-0.1-0.7-0.4-0.9s-0.6-0.3-1-0.3c-0.2,0-0.5,0-0.7,0.1c-0.2,0.1-0.3,0.2-0.5,0.4c-0.1,0.2-0.2,0.3-0.3,0.5
			c-0.1,0.2-0.1,0.4-0.1,0.6h-0.9c0-0.4,0.1-0.7,0.2-1c0.1-0.3,0.3-0.6,0.5-0.8c0.2-0.2,0.4-0.4,0.7-0.5c0.3-0.1,0.6-0.2,1-0.2
			c0.3,0,0.7,0,0.9,0.1c0.3,0.1,0.5,0.2,0.8,0.4c0.2,0.2,0.4,0.4,0.5,0.6c0.1,0.3,0.2,0.6,0.2,0.9c0,0.4-0.1,0.7-0.3,0.9
			c-0.2,0.3-0.5,0.5-0.8,0.6v0c0.5,0.1,0.8,0.3,1.1,0.7s0.3,0.8,0.3,1.2c0,0.4-0.1,0.7-0.2,1s-0.3,0.5-0.6,0.7
			c-0.2,0.2-0.5,0.3-0.9,0.4c-0.3,0.1-0.7,0.1-1,0.1c-0.4,0-0.8-0.1-1.1-0.2c-0.3-0.1-0.6-0.3-0.8-0.5c-0.2-0.2-0.4-0.5-0.5-0.8
			s-0.2-0.7-0.2-1.1h0.9c0,0.5,0.2,0.9,0.4,1.2c0.3,0.3,0.7,0.5,1.2,0.5c0.2,0,0.4,0,0.6-0.1c0.2-0.1,0.4-0.2,0.5-0.3
			c0.2-0.1,0.3-0.3,0.4-0.5c0.1-0.2,0.1-0.4,0.1-0.6c0-0.2,0-0.5-0.1-0.6c-0.1-0.2-0.2-0.3-0.4-0.5c-0.1-0.1-0.3-0.2-0.5-0.3
			s-0.4-0.1-0.7-0.1c-0.2,0-0.4,0-0.6,0L24.2,196.5C24.1,196.5,24.1,196.5,24.2,196.5z"/>
		<path class="st1" d="M28.5,196.2c0-0.3,0.1-0.6,0.1-0.9c0.1-0.3,0.1-0.6,0.3-0.8c0.1-0.3,0.3-0.5,0.5-0.7c0.2-0.2,0.4-0.4,0.7-0.5
			c0.3-0.1,0.6-0.2,1-0.2s0.7,0.1,1,0.2c0.3,0.1,0.5,0.3,0.7,0.5c0.2,0.2,0.3,0.4,0.5,0.7s0.2,0.5,0.3,0.8c0.1,0.3,0.1,0.6,0.1,0.9
			c0,0.3,0,0.6,0,0.9s0,0.6,0,0.9c0,0.3-0.1,0.6-0.1,0.9c-0.1,0.3-0.1,0.6-0.3,0.8c-0.1,0.3-0.3,0.5-0.5,0.7
			c-0.2,0.2-0.4,0.4-0.7,0.5c-0.3,0.1-0.6,0.2-1,0.2c-0.4,0-0.8-0.1-1-0.2c-0.3-0.1-0.5-0.3-0.7-0.5c-0.2-0.2-0.3-0.4-0.5-0.7
			c-0.1-0.3-0.2-0.5-0.3-0.8c-0.1-0.3-0.1-0.6-0.1-0.9c0-0.3,0-0.6,0-0.9S28.5,196.5,28.5,196.2z M29.5,198.1c0,0.4,0.1,0.7,0.2,1
			c0.1,0.3,0.3,0.6,0.5,0.8c0.2,0.2,0.5,0.3,0.9,0.3s0.7-0.1,0.9-0.3c0.2-0.2,0.4-0.5,0.5-0.8c0.1-0.3,0.2-0.7,0.2-1
			c0-0.4,0-0.7,0-1c0-0.2,0-0.4,0-0.6c0-0.2,0-0.5-0.1-0.7c0-0.2-0.1-0.5-0.1-0.7s-0.2-0.4-0.3-0.6s-0.3-0.3-0.5-0.4
			c-0.2-0.1-0.4-0.2-0.7-0.2c-0.3,0-0.5,0.1-0.7,0.2c-0.2,0.1-0.3,0.2-0.5,0.4c-0.1,0.2-0.2,0.4-0.3,0.6c-0.1,0.2-0.1,0.4-0.1,0.7
			c0,0.2-0.1,0.5-0.1,0.7c0,0.2,0,0.4,0,0.6C29.5,197.4,29.5,197.7,29.5,198.1z"/>
	</g>
	<g>
		<path class="st1" d="M15.7,167.6h0.8v-3.5h2c0.4,0,0.7,0,1,0.1c0.3,0.1,0.6,0.2,0.8,0.4c0.2,0.2,0.4,0.4,0.5,0.7
			c0.1,0.3,0.2,0.6,0.2,0.9c0,0.4-0.1,0.7-0.2,1s-0.3,0.5-0.5,0.7s-0.5,0.3-0.8,0.4c-0.3,0.1-0.6,0.1-1,0.1h-1.1v1.1h1.8v0.7h-1.8
			v1.6h-0.9v-1.6h-0.8v-0.7h0.8v-1.1h-0.8V167.6z M18.5,167.6c0.5,0,0.9-0.1,1.2-0.3c0.3-0.2,0.4-0.6,0.4-1c0-0.5-0.1-0.8-0.4-1
			c-0.3-0.2-0.7-0.3-1.2-0.3h-1.1v2.7H18.5z"/>
		<path class="st1" d="M27.3,169.1v0.8h-1.1v1.8h-0.9v-1.8H22V169l3.6-5.1h0.7v5.1H27.3z M25.4,165.3L25.4,165.3l-2.6,3.8h2.6V165.3
			z"/>
		<path class="st1" d="M28.5,167c0-0.3,0.1-0.6,0.1-0.9c0.1-0.3,0.1-0.6,0.3-0.8c0.1-0.3,0.3-0.5,0.5-0.7c0.2-0.2,0.4-0.4,0.7-0.5
			c0.3-0.1,0.6-0.2,1-0.2s0.7,0.1,1,0.2c0.3,0.1,0.5,0.3,0.7,0.5c0.2,0.2,0.3,0.4,0.5,0.7s0.2,0.5,0.3,0.8c0.1,0.3,0.1,0.6,0.1,0.9
			c0,0.3,0,0.6,0,0.9s0,0.6,0,0.9c0,0.3-0.1,0.6-0.1,0.9c-0.1,0.3-0.1,0.6-0.3,0.8c-0.1,0.3-0.3,0.5-0.5,0.7
			c-0.2,0.2-0.4,0.4-0.7,0.5c-0.3,0.1-0.6,0.2-1,0.2c-0.4,0-0.8-0.1-1-0.2c-0.3-0.1-0.5-0.3-0.7-0.5c-0.2-0.2-0.3-0.4-0.5-0.7
			c-0.1-0.3-0.2-0.5-0.3-0.8c-0.1-0.3-0.1-0.6-0.1-0.9c0-0.3,0-0.6,0-0.9S28.5,167.3,28.5,167z M29.5,168.9c0,0.4,0.1,0.7,0.2,1
			c0.1,0.3,0.3,0.6,0.5,0.8c0.2,0.2,0.5,0.3,0.9,0.3s0.7-0.1,0.9-0.3c0.2-0.2,0.4-0.5,0.5-0.8c0.1-0.3,0.2-0.7,0.2-1
			c0-0.4,0-0.7,0-1c0-0.2,0-0.4,0-0.6c0-0.2,0-0.5-0.1-0.7c0-0.2-0.1-0.5-0.1-0.7s-0.2-0.4-0.3-0.6s-0.3-0.3-0.5-0.4
			c-0.2-0.1-0.4-0.2-0.7-0.2c-0.3,0-0.5,0.1-0.7,0.2c-0.2,0.1-0.3,0.2-0.5,0.4c-0.1,0.2-0.2,0.4-0.3,0.6c-0.1,0.2-0.1,0.4-0.1,0.7
			c0,0.2-0.1,0.5-0.1,0.7c0,0.2,0,0.4,0,0.6C29.5,168.2,29.5,168.5,29.5,168.9z"/>
	</g>
	<g>
		<path class="st1" d="M15.7,138.4h0.8v-3.5h2c0.4,0,0.7,0,1,0.1c0.3,0.1,0.6,0.2,0.8,0.4c0.2,0.2,0.4,0.4,0.5,0.7
			c0.1,0.3,0.2,0.6,0.2,0.9c0,0.4-0.1,0.7-0.2,1s-0.3,0.5-0.5,0.7s-0.5,0.3-0.8,0.4c-0.3,0.1-0.6,0.1-1,0.1h-1.1v1.1h1.8v0.7h-1.8
			v1.6h-0.9V141h-0.8v-0.7h0.8v-1.1h-0.8V138.4z M18.5,138.4c0.5,0,0.9-0.1,1.2-0.3c0.3-0.2,0.4-0.6,0.4-1c0-0.5-0.1-0.8-0.4-1
			c-0.3-0.2-0.7-0.3-1.2-0.3h-1.1v2.7H18.5z"/>
		<path class="st1" d="M23.7,135.7l-0.4,2.2l0,0c0.2-0.2,0.4-0.3,0.7-0.4c0.3-0.1,0.5-0.1,0.8-0.1c0.3,0,0.7,0.1,1,0.2
			c0.3,0.1,0.6,0.3,0.8,0.5c0.2,0.2,0.4,0.5,0.5,0.8c0.1,0.3,0.2,0.7,0.2,1.2c0,0.3-0.1,0.7-0.2,1c-0.1,0.3-0.3,0.6-0.5,0.8
			c-0.2,0.2-0.5,0.4-0.9,0.6c-0.3,0.1-0.7,0.2-1.2,0.2c-0.3,0-0.7,0-1-0.1c-0.3-0.1-0.6-0.2-0.8-0.4c-0.2-0.2-0.4-0.4-0.5-0.7
			c-0.1-0.3-0.2-0.6-0.2-0.9H23c0,0.2,0.1,0.4,0.1,0.6c0.1,0.2,0.2,0.3,0.3,0.5c0.1,0.1,0.3,0.2,0.5,0.3c0.2,0.1,0.4,0.1,0.6,0.1
			c0.2,0,0.4,0,0.6-0.1s0.4-0.2,0.5-0.3c0.1-0.2,0.3-0.3,0.4-0.6c0.1-0.2,0.1-0.5,0.1-0.8c0-0.3,0-0.5-0.1-0.7
			c-0.1-0.2-0.2-0.4-0.4-0.6c-0.2-0.2-0.3-0.3-0.6-0.4s-0.5-0.1-0.7-0.1c-0.3,0-0.6,0.1-0.8,0.2s-0.4,0.3-0.6,0.5l-0.8,0l0.7-4h3.9
			v0.8H23.7z"/>
		<path class="st1" d="M28.5,137.9c0-0.3,0.1-0.6,0.1-0.9c0.1-0.3,0.1-0.6,0.3-0.8c0.1-0.3,0.3-0.5,0.5-0.7c0.2-0.2,0.4-0.4,0.7-0.5
			c0.3-0.1,0.6-0.2,1-0.2s0.7,0.1,1,0.2c0.3,0.1,0.5,0.3,0.7,0.5c0.2,0.2,0.3,0.4,0.5,0.7s0.2,0.5,0.3,0.8c0.1,0.3,0.1,0.6,0.1,0.9
			c0,0.3,0,0.6,0,0.9s0,0.6,0,0.9c0,0.3-0.1,0.6-0.1,0.9c-0.1,0.3-0.1,0.6-0.3,0.8c-0.1,0.3-0.3,0.5-0.5,0.7
			c-0.2,0.2-0.4,0.4-0.7,0.5c-0.3,0.1-0.6,0.2-1,0.2c-0.4,0-0.8-0.1-1-0.2c-0.3-0.1-0.5-0.3-0.7-0.5c-0.2-0.2-0.3-0.4-0.5-0.7
			c-0.1-0.3-0.2-0.5-0.3-0.8c-0.1-0.3-0.1-0.6-0.1-0.9c0-0.3,0-0.6,0-0.9S28.5,138.2,28.5,137.9z M29.5,139.7c0,0.4,0.1,0.7,0.2,1
			c0.1,0.3,0.3,0.6,0.5,0.8c0.2,0.2,0.5,0.3,0.9,0.3s0.7-0.1,0.9-0.3c0.2-0.2,0.4-0.5,0.5-0.8c0.1-0.3,0.2-0.7,0.2-1
			c0-0.4,0-0.7,0-1c0-0.2,0-0.4,0-0.6c0-0.2,0-0.5-0.1-0.7c0-0.2-0.1-0.5-0.1-0.7s-0.2-0.4-0.3-0.6s-0.3-0.3-0.5-0.4
			c-0.2-0.1-0.4-0.2-0.7-0.2c-0.3,0-0.5,0.1-0.7,0.2c-0.2,0.1-0.3,0.2-0.5,0.4c-0.1,0.2-0.2,0.4-0.3,0.6c-0.1,0.2-0.1,0.4-0.1,0.7
			c0,0.2-0.1,0.5-0.1,0.7c0,0.2,0,0.4,0,0.6C29.5,139,29.5,139.4,29.5,139.7z"/>
	</g>
	<g>
		<path class="st1" d="M15.7,109.2h0.8v-3.5h2c0.4,0,0.7,0,1,0.1c0.3,0.1,0.6,0.2,0.8,0.4c0.2,0.2,0.4,0.4,0.5,0.7
			c0.1,0.3,0.2,0.6,0.2,0.9c0,0.4-0.1,0.7-0.2,1s-0.3,0.5-0.5,0.7s-0.5,0.3-0.8,0.4c-0.3,0.1-0.6,0.1-1,0.1h-1.1v1.1h1.8v0.7h-1.8
			v1.6h-0.9v-1.6h-0.8v-0.7h0.8V110h-0.8V109.2z M18.5,109.2c0.5,0,0.9-0.1,1.2-0.3c0.3-0.2,0.4-0.6,0.4-1c0-0.5-0.1-0.8-0.4-1
			c-0.3-0.2-0.7-0.3-1.2-0.3h-1.1v2.7H18.5z"/>
		<path class="st1" d="M25.8,106.7c-0.2-0.2-0.5-0.3-0.9-0.3c-0.4,0-0.7,0.1-1,0.3c-0.2,0.2-0.4,0.4-0.6,0.7c-0.1,0.3-0.2,0.6-0.3,1
			c-0.1,0.3-0.1,0.7-0.1,1l0,0c0.2-0.4,0.5-0.6,0.8-0.8c0.3-0.2,0.7-0.2,1.1-0.2c0.4,0,0.7,0.1,1,0.2c0.3,0.1,0.5,0.3,0.7,0.5
			c0.2,0.2,0.4,0.5,0.5,0.8c0.1,0.3,0.2,0.6,0.2,1c0,0.3,0,0.6-0.1,0.9c-0.1,0.3-0.2,0.6-0.4,0.8s-0.5,0.5-0.8,0.6
			c-0.3,0.2-0.7,0.2-1.2,0.2c-0.6,0-1-0.1-1.4-0.4c-0.4-0.2-0.6-0.5-0.8-0.9c-0.2-0.4-0.3-0.8-0.4-1.2c-0.1-0.4-0.1-0.9-0.1-1.3
			c0-0.5,0-1.1,0.1-1.6c0.1-0.5,0.2-0.9,0.5-1.3c0.2-0.4,0.5-0.7,0.9-0.9c0.4-0.2,0.8-0.4,1.4-0.4c0.6,0,1.2,0.2,1.5,0.5
			c0.4,0.3,0.6,0.8,0.7,1.5h-0.9C26.2,107.2,26,106.9,25.8,106.7z M24.1,109.3c-0.2,0.1-0.4,0.2-0.5,0.4c-0.1,0.2-0.2,0.3-0.3,0.6
			c-0.1,0.2-0.1,0.4-0.1,0.7c0,0.2,0,0.5,0.1,0.7c0.1,0.2,0.2,0.4,0.3,0.5c0.1,0.2,0.3,0.3,0.5,0.4s0.4,0.1,0.7,0.1s0.5,0,0.7-0.1
			s0.4-0.2,0.5-0.4s0.2-0.3,0.3-0.6c0.1-0.2,0.1-0.4,0.1-0.7c0-0.2,0-0.5-0.1-0.7c-0.1-0.2-0.2-0.4-0.3-0.6
			c-0.1-0.2-0.3-0.3-0.5-0.4c-0.2-0.1-0.4-0.1-0.7-0.1S24.3,109.2,24.1,109.3z"/>
		<path class="st1" d="M28.5,108.7c0-0.3,0.1-0.6,0.1-0.9c0.1-0.3,0.1-0.6,0.3-0.8c0.1-0.3,0.3-0.5,0.5-0.7c0.2-0.2,0.4-0.4,0.7-0.5
			c0.3-0.1,0.6-0.2,1-0.2s0.7,0.1,1,0.2c0.3,0.1,0.5,0.3,0.7,0.5c0.2,0.2,0.3,0.4,0.5,0.7s0.2,0.5,0.3,0.8c0.1,0.3,0.1,0.6,0.1,0.9
			c0,0.3,0,0.6,0,0.9s0,0.6,0,0.9c0,0.3-0.1,0.6-0.1,0.9c-0.1,0.3-0.1,0.6-0.3,0.8c-0.1,0.3-0.3,0.5-0.5,0.7
			c-0.2,0.2-0.4,0.4-0.7,0.5c-0.3,0.1-0.6,0.2-1,0.2c-0.4,0-0.8-0.1-1-0.2c-0.3-0.1-0.5-0.3-0.7-0.5c-0.2-0.2-0.3-0.4-0.5-0.7
			c-0.1-0.3-0.2-0.5-0.3-0.8c-0.1-0.3-0.1-0.6-0.1-0.9c0-0.3,0-0.6,0-0.9S28.5,109,28.5,108.7z M29.5,110.5c0,0.4,0.1,0.7,0.2,1
			c0.1,0.3,0.3,0.6,0.5,0.8c0.2,0.2,0.5,0.3,0.9,0.3s0.7-0.1,0.9-0.3c0.2-0.2,0.4-0.5,0.5-0.8c0.1-0.3,0.2-0.7,0.2-1
			c0-0.4,0-0.7,0-1c0-0.2,0-0.4,0-0.6c0-0.2,0-0.5-0.1-0.7c0-0.2-0.1-0.5-0.1-0.7s-0.2-0.4-0.3-0.6s-0.3-0.3-0.5-0.4
			c-0.2-0.1-0.4-0.2-0.7-0.2c-0.3,0-0.5,0.1-0.7,0.2c-0.2,0.1-0.3,0.2-0.5,0.4c-0.1,0.2-0.2,0.4-0.3,0.6c-0.1,0.2-0.1,0.4-0.1,0.7
			c0,0.2-0.1,0.5-0.1,0.7c0,0.2,0,0.4,0,0.6C29.5,109.8,29.5,110.2,29.5,110.5z"/>
	</g>
	<g>
		<path class="st1" d="M15.7,80h0.8v-3.5h2c0.4,0,0.7,0,1,0.1c0.3,0.1,0.6,0.2,0.8,0.4c0.2,0.2,0.4,0.4,0.5,0.7
			c0.1,0.3,0.2,0.6,0.2,0.9c0,0.4-0.1,0.7-0.2,1s-0.3,0.5-0.5,0.7s-0.5,0.3-0.8,0.4c-0.3,0.1-0.6,0.1-1,0.1h-1.1v1.1h1.8v0.7h-1.8
			v1.6h-0.9v-1.6h-0.8v-0.7h0.8v-1.1h-0.8V80z M18.5,80c0.5,0,0.9-0.1,1.2-0.3c0.3-0.2,0.4-0.6,0.4-1c0-0.5-0.1-0.8-0.4-1
			c-0.3-0.2-0.7-0.3-1.2-0.3h-1.1V80H18.5z"/>
		<path class="st1" d="M26.1,78.7c-0.3,0.5-0.7,1.1-0.9,1.7c-0.3,0.6-0.5,1.2-0.7,1.9c-0.2,0.6-0.3,1.3-0.3,1.9h-1
			c0-0.7,0.2-1.3,0.3-1.9c0.2-0.6,0.4-1.2,0.7-1.8c0.3-0.6,0.6-1.1,0.9-1.6c0.4-0.5,0.7-1,1.1-1.4h-4.1v-0.9h5v0.8
			C26.9,77.7,26.5,78.2,26.1,78.7z"/>
		<path class="st1" d="M28.5,79.5c0-0.3,0.1-0.6,0.1-0.9c0.1-0.3,0.1-0.6,0.3-0.8c0.1-0.3,0.3-0.5,0.5-0.7c0.2-0.2,0.4-0.4,0.7-0.5
			c0.3-0.1,0.6-0.2,1-0.2s0.7,0.1,1,0.2c0.3,0.1,0.5,0.3,0.7,0.5c0.2,0.2,0.3,0.4,0.5,0.7s0.2,0.5,0.3,0.8c0.1,0.3,0.1,0.6,0.1,0.9
			c0,0.3,0,0.6,0,0.9s0,0.6,0,0.9c0,0.3-0.1,0.6-0.1,0.9c-0.1,0.3-0.1,0.6-0.3,0.8c-0.1,0.3-0.3,0.5-0.5,0.7
			c-0.2,0.2-0.4,0.4-0.7,0.5c-0.3,0.1-0.6,0.2-1,0.2c-0.4,0-0.8-0.1-1-0.2c-0.3-0.1-0.5-0.3-0.7-0.5c-0.2-0.2-0.3-0.4-0.5-0.7
			c-0.1-0.3-0.2-0.5-0.3-0.8c-0.1-0.3-0.1-0.6-0.1-0.9c0-0.3,0-0.6,0-0.9S28.5,79.8,28.5,79.5z M29.5,81.4c0,0.4,0.1,0.7,0.2,1
			c0.1,0.3,0.3,0.6,0.5,0.8c0.2,0.2,0.5,0.3,0.9,0.3s0.7-0.1,0.9-0.3c0.2-0.2,0.4-0.5,0.5-0.8c0.1-0.3,0.2-0.7,0.2-1
			c0-0.4,0-0.7,0-1c0-0.2,0-0.4,0-0.6c0-0.2,0-0.5-0.1-0.7c0-0.2-0.1-0.5-0.1-0.7s-0.2-0.4-0.3-0.6s-0.3-0.3-0.5-0.4
			c-0.2-0.1-0.4-0.2-0.7-0.2c-0.3,0-0.5,0.1-0.7,0.2c-0.2,0.1-0.3,0.2-0.5,0.4c-0.1,0.2-0.2,0.4-0.3,0.6c-0.1,0.2-0.1,0.4-0.1,0.7
			c0,0.2-0.1,0.5-0.1,0.7c0,0.2,0,0.4,0,0.6C29.5,80.7,29.5,81,29.5,81.4z"/>
	</g>
	<g>
		<path class="st1" d="M15.7,50.9h0.8v-3.5h2c0.4,0,0.7,0,1,0.1c0.3,0.1,0.6,0.2,0.8,0.4c0.2,0.2,0.4,0.4,0.5,0.7
			c0.1,0.3,0.2,0.6,0.2,0.9c0,0.4-0.1,0.7-0.2,1s-0.3,0.5-0.5,0.7s-0.5,0.3-0.8,0.4c-0.3,0.1-0.6,0.1-1,0.1h-1.1v1.1h1.8v0.7h-1.8
			V55h-0.9v-1.6h-0.8v-0.7h0.8v-1.1h-0.8V50.9z M18.5,50.9c0.5,0,0.9-0.1,1.2-0.3c0.3-0.2,0.4-0.6,0.4-1c0-0.5-0.1-0.8-0.4-1
			c-0.3-0.2-0.7-0.3-1.2-0.3h-1.1v2.7H18.5z"/>
		<path class="st1" d="M22.6,48.4c0.1-0.2,0.3-0.5,0.5-0.6c0.2-0.2,0.5-0.3,0.7-0.4c0.3-0.1,0.6-0.1,0.9-0.1c0.4,0,0.8,0.1,1.1,0.2
			c0.3,0.1,0.5,0.3,0.7,0.5c0.2,0.2,0.3,0.4,0.4,0.6C27,48.7,27,49,27,49.2c0,0.4-0.1,0.7-0.3,1c-0.2,0.3-0.5,0.5-0.8,0.7
			c0.5,0.1,0.8,0.4,1,0.7c0.2,0.3,0.3,0.7,0.3,1.2c0,0.4-0.1,0.7-0.2,1c-0.1,0.3-0.3,0.5-0.6,0.7c-0.2,0.2-0.5,0.4-0.8,0.5
			s-0.7,0.2-1,0.2c-0.4,0-0.7,0-1-0.1c-0.3-0.1-0.6-0.2-0.8-0.4s-0.4-0.4-0.6-0.7c-0.1-0.3-0.2-0.6-0.2-1c0-0.5,0.1-0.9,0.4-1.2
			c0.2-0.3,0.6-0.6,1-0.7c-0.3-0.1-0.6-0.3-0.8-0.6c-0.2-0.3-0.3-0.6-0.3-1C22.4,48.9,22.4,48.6,22.6,48.4z M23.6,53.9
			c0.3,0.3,0.7,0.4,1.2,0.4c0.2,0,0.4,0,0.6-0.1s0.4-0.2,0.5-0.3c0.1-0.1,0.3-0.3,0.3-0.5c0.1-0.2,0.1-0.4,0.1-0.6
			c0-0.2,0-0.4-0.1-0.6c-0.1-0.2-0.2-0.3-0.3-0.5c-0.1-0.1-0.3-0.2-0.5-0.3c-0.2-0.1-0.4-0.1-0.6-0.1c-0.2,0-0.4,0-0.6,0.1
			c-0.2,0.1-0.4,0.2-0.5,0.3c-0.2,0.1-0.3,0.3-0.4,0.5c-0.1,0.2-0.1,0.4-0.1,0.6C23.1,53.3,23.2,53.7,23.6,53.9z M23.5,49.8
			c0.1,0.2,0.2,0.3,0.3,0.4c0.1,0.1,0.3,0.2,0.4,0.2c0.2,0.1,0.3,0.1,0.5,0.1c0.4,0,0.7-0.1,0.9-0.3c0.2-0.2,0.4-0.5,0.4-0.9
			c0-0.4-0.1-0.7-0.4-0.9c-0.2-0.2-0.6-0.3-0.9-0.3c-0.2,0-0.4,0-0.5,0.1c-0.2,0.1-0.3,0.1-0.4,0.2s-0.2,0.2-0.3,0.4
			s-0.1,0.3-0.1,0.5C23.4,49.5,23.4,49.6,23.5,49.8z"/>
		<path class="st1" d="M28.5,50.3c0-0.3,0.1-0.6,0.1-0.9c0.1-0.3,0.1-0.6,0.3-0.8c0.1-0.3,0.3-0.5,0.5-0.7c0.2-0.2,0.4-0.4,0.7-0.5
			c0.3-0.1,0.6-0.2,1-0.2s0.7,0.1,1,0.2c0.3,0.1,0.5,0.3,0.7,0.5c0.2,0.2,0.3,0.4,0.5,0.7s0.2,0.5,0.3,0.8c0.1,0.3,0.1,0.6,0.1,0.9
			c0,0.3,0,0.6,0,0.9s0,0.6,0,0.9c0,0.3-0.1,0.6-0.1,0.9c-0.1,0.3-0.1,0.6-0.3,0.8c-0.1,0.3-0.3,0.5-0.5,0.7
			c-0.2,0.2-0.4,0.4-0.7,0.5c-0.3,0.1-0.6,0.2-1,0.2c-0.4,0-0.8-0.1-1-0.2c-0.3-0.1-0.5-0.3-0.7-0.5c-0.2-0.2-0.3-0.4-0.5-0.7
			c-0.1-0.3-0.2-0.5-0.3-0.8c-0.1-0.3-0.1-0.6-0.1-0.9c0-0.3,0-0.6,0-0.9S28.5,50.6,28.5,50.3z M29.5,52.2c0,0.4,0.1,0.7,0.2,1
			c0.1,0.3,0.3,0.6,0.5,0.8c0.2,0.2,0.5,0.3,0.9,0.3s0.7-0.1,0.9-0.3c0.2-0.2,0.4-0.5,0.5-0.8c0.1-0.3,0.2-0.7,0.2-1
			c0-0.4,0-0.7,0-1c0-0.2,0-0.4,0-0.6c0-0.2,0-0.5-0.1-0.7c0-0.2-0.1-0.5-0.1-0.7s-0.2-0.4-0.3-0.6s-0.3-0.3-0.5-0.4
			c-0.2-0.1-0.4-0.2-0.7-0.2c-0.3,0-0.5,0.1-0.7,0.2c-0.2,0.1-0.3,0.2-0.5,0.4c-0.1,0.2-0.2,0.4-0.3,0.6c-0.1,0.2-0.1,0.4-0.1,0.7
			c0,0.2-0.1,0.5-0.1,0.7c0,0.2,0,0.4,0,0.6C29.5,51.5,29.5,51.8,29.5,52.2z"/>
	</g>
	<g>
		<path class="st1" d="M15.7,21.7h0.8v-3.5h2c0.4,0,0.7,0,1,0.1c0.3,0.1,0.6,0.2,0.8,0.4c0.2,0.2,0.4,0.4,0.5,0.7
			c0.1,0.3,0.2,0.6,0.2,0.9c0,0.4-0.1,0.7-0.2,1s-0.3,0.5-0.5,0.7s-0.5,0.3-0.8,0.4c-0.3,0.1-0.6,0.1-1,0.1h-1.1v1.1h1.8v0.7h-1.8
			v1.6h-0.9v-1.6h-0.8v-0.7h0.8v-1.1h-0.8V21.7z M18.5,21.7c0.5,0,0.9-0.1,1.2-0.3c0.3-0.2,0.4-0.6,0.4-1c0-0.5-0.1-0.8-0.4-1
			c-0.3-0.2-0.7-0.3-1.2-0.3h-1.1v2.7H18.5z"/>
		<path class="st1" d="M23.6,24.8c0.3,0.2,0.6,0.3,1,0.3c0.6,0,1-0.2,1.3-0.7s0.4-1.3,0.5-2.3l0,0c-0.2,0.3-0.4,0.6-0.7,0.8
			s-0.7,0.3-1.1,0.3c-0.4,0-0.7-0.1-1.1-0.2c-0.3-0.1-0.6-0.3-0.8-0.5s-0.4-0.5-0.5-0.8C22.1,21.3,22,21,22,20.6
			c0-0.4,0.1-0.7,0.2-1c0.1-0.3,0.3-0.6,0.5-0.8c0.2-0.2,0.5-0.4,0.8-0.5c0.3-0.1,0.7-0.2,1-0.2c0.4,0,0.7,0.1,1,0.2
			c0.3,0.1,0.6,0.3,0.8,0.6c0.2,0.3,0.4,0.7,0.6,1.1s0.2,1.1,0.2,1.8c0,1.3-0.2,2.4-0.6,3.1c-0.4,0.7-1.1,1.1-2.1,1.1
			c-0.7,0-1.2-0.2-1.6-0.5s-0.7-0.8-0.7-1.5h0.9C23.2,24.3,23.3,24.6,23.6,24.8z M26.1,20c-0.1-0.2-0.2-0.4-0.3-0.6
			s-0.3-0.3-0.5-0.4c-0.2-0.1-0.4-0.1-0.7-0.1c-0.3,0-0.5,0.1-0.7,0.2c-0.2,0.1-0.4,0.2-0.5,0.4c-0.1,0.2-0.2,0.4-0.3,0.6
			c-0.1,0.2-0.1,0.5-0.1,0.7c0,0.2,0,0.4,0.1,0.6s0.2,0.4,0.3,0.5c0.1,0.2,0.3,0.3,0.5,0.4s0.4,0.1,0.6,0.1c0.2,0,0.5,0,0.7-0.1
			c0.2-0.1,0.4-0.2,0.5-0.4c0.1-0.2,0.2-0.3,0.3-0.5c0.1-0.2,0.1-0.4,0.1-0.7C26.2,20.4,26.1,20.2,26.1,20z"/>
		<path class="st1" d="M28.5,21.1c0-0.3,0.1-0.6,0.1-0.9c0.1-0.3,0.1-0.6,0.3-0.8c0.1-0.3,0.3-0.5,0.5-0.7c0.2-0.2,0.4-0.4,0.7-0.5
			c0.3-0.1,0.6-0.2,1-0.2s0.7,0.1,1,0.2c0.3,0.1,0.5,0.3,0.7,0.5c0.2,0.2,0.3,0.4,0.5,0.7s0.2,0.5,0.3,0.8c0.1,0.3,0.1,0.6,0.1,0.9
			c0,0.3,0,0.6,0,0.9s0,0.6,0,0.9c0,0.3-0.1,0.6-0.1,0.9c-0.1,0.3-0.1,0.6-0.3,0.8c-0.1,0.3-0.3,0.5-0.5,0.7
			c-0.2,0.2-0.4,0.4-0.7,0.5c-0.3,0.1-0.6,0.2-1,0.2c-0.4,0-0.8-0.1-1-0.2c-0.3-0.1-0.5-0.3-0.7-0.5c-0.2-0.2-0.3-0.4-0.5-0.7
			c-0.1-0.3-0.2-0.5-0.3-0.8c-0.1-0.3-0.1-0.6-0.1-0.9c0-0.3,0-0.6,0-0.9S28.5,21.4,28.5,21.1z M29.5,23c0,0.4,0.1,0.7,0.2,1
			c0.1,0.3,0.3,0.6,0.5,0.8c0.2,0.2,0.5,0.3,0.9,0.3s0.7-0.1,0.9-0.3c0.2-0.2,0.4-0.5,0.5-0.8c0.1-0.3,0.2-0.7,0.2-1
			c0-0.4,0-0.7,0-1c0-0.2,0-0.4,0-0.6c0-0.2,0-0.5-0.1-0.7c0-0.2-0.1-0.5-0.1-0.7s-0.2-0.4-0.3-0.6S32,19.1,31.8,19
			c-0.2-0.1-0.4-0.2-0.7-0.2c-0.3,0-0.5,0.1-0.7,0.2c-0.2,0.1-0.3,0.2-0.5,0.4c-0.1,0.2-0.2,0.4-0.3,0.6c-0.1,0.2-0.1,0.4-0.1,0.7
			c0,0.2-0.1,0.5-0.1,0.7c0,0.2,0,0.4,0,0.6C29.5,22.3,29.5,22.6,29.5,23z"/>
	</g>
</g>
<g id="Layer_4">
	<line class="st2" x1="52.5" y1="186.7" x2="52.5" y2="145"/>
	<line class="st3" x1="64.5" y1="168" x2="64.5" y2="197.3"/>
	<line class="st2" x1="76.5" y1="168" x2="76.5" y2="225.5"/>
	<line class="st2" x1="88.5" y1="211" x2="88.5" y2="243.7"/>
	<line class="st3" x1="124.5" y1="190.2" x2="124.5" y2="245.8"/>
	<line class="st3" x1="172.5" y1="87" x2="172.5" y2="132.5"/>
	<line class="st2" x1="208.5" y1="157.2" x2="208.5" y2="192.7"/>
	<line class="st2" x1="220.5" y1="169" x2="220.5" y2="208.1"/>
	<line class="st3" x1="244.5" y1="201.7" x2="244.5" y2="238.2"/>
	<line class="st2" x1="280.5" y1="136.1" x2="280.5" y2="176.3"/>
	<line class="st2" x1="292.5" y1="164.1" x2="292.5" y2="204.2"/>
	<line class="st2" x1="376.5" y1="144" x2="376.5" y2="192"/>
	<line class="st2" x1="388.5" y1="165.2" x2="388.5" y2="195.9"/>
	<line class="st3" x1="400.5" y1="147.2" x2="400.5" y2="184.9"/>
	<line class="st3" x1="304.5" y1="145.9" x2="304.5" y2="219.9"/>
	<line class="st2" x1="328.5" y1="130.4" x2="328.5" y2="194.9"/>
	<line class="st2" x1="352.5" y1="75.8" x2="352.5" y2="125"/>
	<line class="st3" x1="340.5" y1="105.8" x2="340.5" y2="185.1"/>
	<line class="st2" x1="364.5" y1="93.8" x2="364.5" y2="184.1"/>
	<line class="st3" x1="316.5" y1="137.3" x2="316.5" y2="200"/>
	<line class="st2" x1="256.5" y1="201.7" x2="256.5" y2="257.5"/>
	<line class="st2" x1="268.5" y1="222.8" x2="268.5" y2="284.2"/>
	<line class="st2" x1="232.5" y1="188.5" x2="232.5" y2="224.2"/>
	<line class="st3" x1="184.5" y1="70.1" x2="184.5" y2="109.8"/>
	<line class="st2" x1="196.5" y1="84.2" x2="196.5" y2="176.5"/>
	<line class="st3" x1="148.5" y1="137.6" x2="148.5" y2="255.7"/>
	<line class="st3" x1="160.5" y1="119.7" x2="160.5" y2="196.7"/>
	<line class="st3" x1="112.5" y1="241.5" x2="112.5" y2="268"/>
	<line class="st2" x1="136.5" y1="214.9" x2="136.5" y2="245.8"/>
	<line class="st2" x1="100.5" y1="224.8" x2="100.5" y2="272.1"/>
	<line class="st2" x1="412.5" y1="166.1" x2="412.5" y2="205.7"/>
	<line class="st3" x1="424.5" y1="182.6" x2="424.5" y2="205.7"/>
	<line class="st2" x1="436.5" y1="203.2" x2="436.5" y2="166.1"/>
	<line class="st3" x1="448.5" y1="180.5" x2="448.5" y2="205.7"/>
	<line class="st2" x1="460.5" y1="158" x2="460.5" y2="223.5"/>
	<line class="st2" x1="472.5" y1="203.2" x2="472.5" y2="163.8"/>
	<line class="st2" x1="484.5" y1="238.8" x2="484.5" y2="176.1"/>
	<line class="st2" x1="496.5" y1="264.5" x2="496.5" y2="220.5"/>
	<line class="st2" x1="508.5" y1="254.8" x2="508.5" y2="286.8"/>
	<line class="st3" x1="520.5" y1="285" x2="520.5" y2="220.5"/>
	<line class="st2" x1="532.5" y1="246.2" x2="532.5" y2="220.5"/>
	<line class="st2" x1="544.5" y1="275.3" x2="544.5" y2="235.2"/>
	<line class="st2" x1="556.5" y1="282" x2="556.5" y2="250.1"/>
	<line class="st3" x1="568.5" y1="238.8" x2="568.5" y2="194.1"/>
	<line class="st3" x1="580.5" y1="193.1" x2="580.5" y2="231.5"/>
	<line class="st2" x1="592.5" y1="230.1" x2="592.5" y2="176.1"/>
	<line class="st3" x1="604.5" y1="194.9" x2="604.5" y2="231.5"/>
	<line class="st3" x1="616.5" y1="205.7" x2="616.5" y2="151.8"/>
	<line class="st3" x1="628.5" y1="156.2" x2="628.5" y2="114.4"/>
	<line class="st2" x1="640.5" y1="120.2" x2="640.5" y2="155.2"/>
	<line class="st2" x1="652.5" y1="131.3" x2="652.5" y2="199.6"/>
	<line class="st3" x1="664.5" y1="153.5" x2="664.5" y2="88.5"/>
	<line class="st3" x1="676.5" y1="64.2" x2="676.5" y2="128"/>
	<line class="st3" x1="688.5" y1="48.8" x2="688.5" y2="92.2"/>
	<line class="st3" x1="700.5" y1="32.8" x2="700.5" y2="73.8"/>
	<line class="st2" x1="712.5" y1="55" x2="712.5" y2="108.5"/>
</g>
<g id="Layer_5">
	<line class="st2" x1="52.5" y1="154.1" x2="47.8" y2="154.1"/>
	<line class="st2" x1="57.2" y1="181.7" x2="52.5" y2="181.7"/>
	<line class="st3" x1="64.5" y1="181.7" x2="59.8" y2="181.7"/>
	<line class="st3" x1="69.2" y1="171.3" x2="64.5" y2="171.3"/>
	<line class="st2" x1="76.6" y1="175.4" x2="71.8" y2="175.4"/>
	<line class="st2" x1="81.2" y1="224.5" x2="76.5" y2="224.5"/>
	<line class="st2" x1="88.5" y1="225.5" x2="83.8" y2="225.5"/>
	<line class="st2" x1="93.2" y1="229.4" x2="88.5" y2="229.4"/>
	<line class="st2" x1="100.5" y1="228.2" x2="95.8" y2="228.2"/>
	<line class="st3" x1="112.5" y1="262.1" x2="107.8" y2="262.1"/>
	<line class="st3" x1="117.2" y1="249.3" x2="112.5" y2="249.3"/>
	<line class="st3" x1="124.8" y1="233.3" x2="120.1" y2="233.3"/>
	<line class="st2" x1="136.5" y1="218.4" x2="131.8" y2="218.4"/>
	<line class="st2" x1="141.2" y1="230.9" x2="136.5" y2="230.9"/>
	<line class="st3" x1="148.5" y1="235.4" x2="143.8" y2="235.4"/>
	<line class="st3" x1="129.2" y1="225.5" x2="124.5" y2="225.5"/>
	<line class="st2" x1="105.2" y1="265.6" x2="100.5" y2="265.6"/>
	<line class="st3" x1="153.2" y1="165.5" x2="148.5" y2="165.5"/>
	<line class="st3" x1="160.5" y1="170.7" x2="155.8" y2="170.7"/>
	<line class="st3" x1="165.2" y1="125.7" x2="160.5" y2="125.7"/>
	<line class="st3" x1="172.5" y1="112.4" x2="167.8" y2="112.4"/>
	<line class="st3" x1="177.2" y1="99.2" x2="172.5" y2="99.2"/>
	<line class="st3" x1="184.5" y1="95.4" x2="179.8" y2="95.4"/>
	<line class="st2" x1="196.5" y1="91.3" x2="191.8" y2="91.3"/>
	<line class="st3" x1="189.2" y1="93.7" x2="184.5" y2="93.7"/>
	<line class="st2" x1="201.2" y1="169.4" x2="196.5" y2="169.4"/>
	<line class="st2" x1="208.5" y1="169.8" x2="203.8" y2="169.8"/>
	<line class="st2" x1="213.2" y1="170.7" x2="208.5" y2="170.7"/>
	<line class="st2" x1="221" y1="175" x2="216.2" y2="175"/>
	<line class="st2" x1="225.2" y1="195.3" x2="220.5" y2="195.3"/>
	<line class="st2" x1="232.5" y1="194.2" x2="227.8" y2="194.2"/>
	<line class="st2" x1="237.2" y1="221.8" x2="232.5" y2="221.8"/>
	<line class="st3" x1="244.5" y1="226.5" x2="239.8" y2="226.5"/>
	<line class="st3" x1="249.2" y1="209.1" x2="244.5" y2="209.1"/>
	<line class="st2" x1="256.5" y1="209.1" x2="251.8" y2="209.1"/>
	<line class="st2" x1="261.2" y1="224.2" x2="256.5" y2="224.2"/>
	<line class="st2" x1="268.5" y1="233.3" x2="263.8" y2="233.3"/>
	<line class="st2" x1="273.2" y1="261.9" x2="268.5" y2="261.9"/>
	<line class="st2" x1="280.5" y1="149.7" x2="275.8" y2="149.7"/>
	<line class="st2" x1="285.2" y1="169.9" x2="280.5" y2="169.9"/>
	<line class="st2" x1="292.5" y1="169.2" x2="287.8" y2="169.2"/>
	<line class="st2" x1="297.2" y1="192.1" x2="292.5" y2="192.1"/>
	<line class="st3" x1="304.5" y1="192.1" x2="299.8" y2="192.1"/>
	<line class="st3" x1="309.2" y1="191.1" x2="304.5" y2="191.1"/>
	<line class="st3" x1="316.5" y1="187.4" x2="311.8" y2="187.4"/>
	<line class="st3" x1="321.2" y1="143.4" x2="316.5" y2="143.4"/>
	<line class="st2" x1="328.5" y1="145.9" x2="323.8" y2="145.9"/>
	<line class="st2" x1="333.2" y1="151.7" x2="328.5" y2="151.7"/>
	<line class="st3" x1="340.5" y1="114.2" x2="335.8" y2="114.2"/>
	<line class="st3" x1="345.2" y1="157.5" x2="340.5" y2="157.5"/>
	<line class="st2" x1="352.5" y1="106.8" x2="347.8" y2="106.8"/>
	<line class="st2" x1="357.2" y1="115.2" x2="352.5" y2="115.2"/>
	<line class="st2" x1="364.5" y1="112.1" x2="359.8" y2="112.1"/>
	<line class="st2" x1="369.8" y1="179.9" x2="365" y2="179.9"/>
	<line class="st2" x1="376.5" y1="169" x2="371.8" y2="169"/>
	<line class="st2" x1="381.2" y1="169" x2="376.5" y2="169"/>
	<line class="st2" x1="388.5" y1="170.4" x2="383.8" y2="170.4"/>
	<line class="st2" x1="393.2" y1="176.1" x2="388.5" y2="176.1"/>
	<line class="st3" x1="400.5" y1="177.8" x2="395.8" y2="177.8"/>
	<line class="st3" x1="405.2" y1="175" x2="400.5" y2="175"/>
	<line class="st2" x1="412.5" y1="169.5" x2="407.8" y2="169.5"/>
	<line class="st2" x1="417.2" y1="193.5" x2="412.5" y2="193.5"/>
	<line class="st3" x1="424.5" y1="190.4" x2="419.8" y2="190.4"/>
	<line class="st3" x1="429.1" y1="185.4" x2="424.4" y2="185.4"/>
	<line class="st2" x1="436.5" y1="184.9" x2="431.8" y2="184.9"/>
	<line class="st2" x1="441.2" y1="192.4" x2="436.5" y2="192.4"/>
	<line class="st3" x1="448.5" y1="191.7" x2="443.8" y2="191.7"/>
	<line class="st3" x1="453.2" y1="183.5" x2="448.5" y2="183.5"/>
	<line class="st2" x1="460.5" y1="187.5" x2="455.8" y2="187.5"/>
	<line class="st2" x1="465.2" y1="193.8" x2="460.5" y2="193.8"/>
	<line class="st2" x1="472.5" y1="196.8" x2="467.8" y2="196.8"/>
	<line class="st2" x1="477.2" y1="198.9" x2="472.5" y2="198.9"/>
	<line class="st2" x1="484.5" y1="202.2" x2="479.8" y2="202.2"/>
	<line class="st2" x1="489.2" y1="226.1" x2="484.5" y2="226.1"/>
	<line class="st2" x1="496.5" y1="228.5" x2="491.8" y2="228.5"/>
	<line class="st2" x1="501.2" y1="258.3" x2="496.5" y2="258.3"/>
	<line class="st2" x1="508.5" y1="258.3" x2="503.8" y2="258.3"/>
	<line class="st2" x1="513.2" y1="281" x2="508.5" y2="281"/>
	<line class="st3" x1="520.5" y1="274.4" x2="515.8" y2="274.4"/>
	<line class="st3" x1="525.2" y1="225.9" x2="520.5" y2="225.9"/>
	<line class="st2" x1="532.5" y1="227.8" x2="527.8" y2="227.8"/>
	<line class="st2" x1="537.2" y1="237.9" x2="532.5" y2="237.9"/>
	<line class="st2" x1="544.5" y1="244.1" x2="539.8" y2="244.1"/>
	<line class="st2" x1="549.2" y1="270.5" x2="544.5" y2="270.5"/>
	<line class="st2" x1="556.5" y1="270.5" x2="551.8" y2="270.5"/>
	<line class="st2" x1="561.2" y1="277" x2="556.5" y2="277"/>
	<line class="st3" x1="568.5" y1="231.9" x2="563.8" y2="231.9"/>
	<line class="st3" x1="573.2" y1="200.9" x2="568.5" y2="200.9"/>
	<line class="st3" x1="580.5" y1="202.1" x2="575.8" y2="202.1"/>
	<line class="st3" x1="585.2" y1="197.1" x2="580.5" y2="197.1"/>
	<line class="st2" x1="592.5" y1="200.9" x2="587.8" y2="200.9"/>
	<line class="st2" x1="597.2" y1="225.9" x2="592.5" y2="225.9"/>
	<line class="st3" x1="604.5" y1="223.5" x2="599.8" y2="223.5"/>
	<line class="st3" x1="609.2" y1="198.9" x2="604.5" y2="198.9"/>
	<line class="st3" x1="616.5" y1="198.9" x2="611.8" y2="198.9"/>
	<line class="st3" x1="621.2" y1="161.2" x2="616.5" y2="161.2"/>
	<line class="st3" x1="628.5" y1="152.6" x2="623.8" y2="152.6"/>
	<line class="st3" x1="633.2" y1="122.6" x2="628.5" y2="122.6"/>
	<line class="st2" x1="640.5" y1="125.8" x2="635.8" y2="125.8"/>
	<line class="st2" x1="645.2" y1="130.4" x2="640.5" y2="130.4"/>
	<line class="st2" x1="652.5" y1="136.2" x2="647.8" y2="136.2"/>
	<line class="st2" x1="657.2" y1="194.7" x2="652.5" y2="194.7"/>
	<line class="st3" x1="664.5" y1="152.6" x2="659.8" y2="152.6"/>
	<line class="st3" x1="669.2" y1="97.5" x2="664.5" y2="97.5"/>
	<line class="st3" x1="676.5" y1="101.7" x2="671.8" y2="101.7"/>
	<line class="st3" x1="681.2" y1="72.1" x2="676.5" y2="72.1"/>
	<line class="st3" x1="688.5" y1="69.8" x2="683.8" y2="69.8"/>
	<line class="st3" x1="693.2" y1="61.8" x2="688.5" y2="61.8"/>
	<line class="st3" x1="700.5" y1="70.1" x2="695.8" y2="70.1"/>
	<line class="st3" x1="705.2" y1="40.1" x2="700.5" y2="40.1"/>
	<line class="st2" x1="712.5" y1="63.5" x2="707.8" y2="63.5"/>
	<line class="st2" x1="717.2" y1="78.4" x2="712.5" y2="78.4"/>
	<g>
	</g>
	<g>
	</g>
	<g>
	</g>
	<g>
	</g>
	<g>
	</g>
	<g>
	</g>
	<g>
	</g>
	<g>
	</g>
	<g>
	</g>
	<g>
	</g>
</g>
</svg>
